<svg id="Capa_1" enable-background="new 0 0 512 512" height="512" viewBox="0 0 512 512" width="512" xmlns="http://www.w3.org/2000/svg"><g><path d="m163.892 150h-105.667c-20.678 0-37.5 16.822-37.5 37.5v122.011c0 12.407 10.093 22.5 22.5 22.5 2.629 0 5.153-.458 7.5-1.29v124.863c0 14.566 11.851 26.417 26.417 26.417s26.417-11.851 26.417-26.417v-138.573h15v138.573c0 14.566 11.851 26.417 26.417 26.417s26.417-11.851 26.417-26.417v-124.786c2.337.784 4.858 1.213 7.501 1.213 12.617 0 22.5-9.664 22.5-22v-122.511c-.002-20.678-16.825-37.5-37.502-37.5zm22.5 160.011c0 3.991-3.224 7-7.5 7s-7.5-3.009-7.5-7c-.001 0-.001-122.511-.001-122.511 0-4.142-3.358-7.5-7.5-7.5s-7.5 3.358-7.5 7.5v268.083c0 6.295-5.122 11.417-11.417 11.417s-11.417-5.122-11.417-11.417v-146.072c0-4.142-3.358-7.5-7.5-7.5h-30c-4.142 0-7.5 3.358-7.5 7.5v146.073c0 6.295-5.122 11.417-11.417 11.417s-11.417-5.122-11.417-11.417v-223.084c0-4.142-3.358-7.5-7.5-7.5s-7.5 3.358-7.5 7.5v77.011c0 4.136-3.365 7.5-7.5 7.5-4.136 0-7.5-3.364-7.5-7.5v-122.011c0-12.407 10.093-22.5 22.5-22.5h105.667c12.407 0 22.5 10.093 22.5 22.5v122.511z"/><path d="m58.225 180c-4.142 0-7.5 3.358-7.5 7.5v15c0 4.142 3.358 7.5 7.5 7.5s7.5-3.358 7.5-7.5v-15c0-4.142-3.358-7.5-7.5-7.5z"/><path d="m110.729 135c28.949 0 52.5-23.551 52.5-52.5s-23.551-52.5-52.5-52.5-52.5 23.551-52.5 52.5 23.551 52.5 52.5 52.5zm0-90c20.678 0 37.5 16.822 37.5 37.5s-16.822 37.5-37.5 37.5-37.5-16.822-37.5-37.5 16.822-37.5 37.5-37.5z"/><path d="m285.889 102.833c12.407 0 22.5-10.093 22.5-22.5s-10.093-22.5-22.5-22.5h-46.997c-12.407 0-22.5 10.093-22.5 22.5v351.333c0 12.407 10.093 22.5 22.5 22.5h46.997c12.407 0 22.5-10.093 22.5-22.5s-10.093-22.5-22.5-22.5h-24.497v-130.666h24.497c12.407 0 22.5-10.093 22.5-22.5s-10.093-22.5-22.5-22.5h-24.497v-130.667zm-31.997 145.667h31.997c4.136 0 7.5 3.364 7.5 7.5s-3.364 7.5-7.5 7.5h-31.997c-4.142 0-7.5 3.358-7.5 7.5v145.667c0 4.142 3.358 7.5 7.5 7.5h31.997c4.136 0 7.5 3.364 7.5 7.5 0 4.135-3.364 7.5-7.5 7.5h-46.997c-4.136 0-7.5-3.365-7.5-7.5v-351.334c0-4.136 3.364-7.5 7.5-7.5h46.997c4.136 0 7.5 3.364 7.5 7.5s-3.364 7.5-7.5 7.5h-31.997c-4.142 0-7.5 3.358-7.5 7.5v145.667c0 4.142 3.358 7.5 7.5 7.5z"/><path d="m401.327 159.658c1.162.672 2.459 1.009 3.757 1.009s2.595-.336 3.757-1.009c3.366-1.948 82.423-48.387 82.435-107.819-.001-28.584-23.253-51.839-51.834-51.839-12.806 0-24.947 4.666-34.358 13.018-9.413-8.351-21.554-13.018-34.359-13.018-28.581 0-51.833 23.255-51.833 51.841.011 59.43 79.069 105.869 82.435 107.817zm-30.602-144.658c11.107 0 21.513 4.943 28.549 13.561 1.424 1.745 3.557 2.757 5.81 2.757s4.386-1.012 5.81-2.757c7.035-8.618 17.44-13.561 28.548-13.561 20.31 0 36.833 16.526 36.833 36.838-.009 44.114-56.001 82.828-71.192 92.516-15.193-9.69-71.184-48.402-71.192-92.515.001-20.313 16.524-36.839 36.834-36.839z"/><path d="m439.442 175.667c-12.806 0-24.947 4.666-34.358 13.018-9.412-8.351-21.553-13.018-34.358-13.018-28.581 0-51.833 23.255-51.833 51.841.011 59.431 79.069 105.87 82.435 107.817 1.162.672 2.459 1.009 3.757 1.009s2.595-.336 3.757-1.009c3.366-1.948 82.423-48.387 82.435-107.819-.002-28.585-23.254-51.839-51.835-51.839zm-34.359 144.354c-15.193-9.69-71.184-48.402-71.192-92.515 0-20.313 16.523-36.839 36.833-36.839 11.107 0 21.513 4.942 28.549 13.561 1.424 1.745 3.558 2.757 5.81 2.757s4.386-1.012 5.81-2.757c7.035-8.618 17.44-13.561 28.548-13.561 20.31 0 36.833 16.526 36.833 36.838-.007 44.113-56 82.827-71.191 92.516z"/><path d="m439.442 351.333c-12.806 0-24.947 4.666-34.358 13.018-9.412-8.351-21.553-13.018-34.358-13.018-28.581 0-51.833 23.255-51.833 51.841.011 59.431 79.069 105.87 82.435 107.817 1.162.672 2.459 1.009 3.757 1.009s2.595-.336 3.757-1.009c3.366-1.948 82.423-48.387 82.435-107.819-.002-28.584-23.254-51.839-51.835-51.839zm-34.359 144.354c-15.193-9.69-71.184-48.402-71.192-92.515 0-20.313 16.523-36.839 36.833-36.839 11.107 0 21.513 4.942 28.549 13.561 1.424 1.745 3.558 2.757 5.81 2.757s4.386-1.012 5.81-2.757c7.035-8.618 17.44-13.561 28.548-13.561 20.31 0 36.833 16.526 36.833 36.838-.007 44.114-56 82.828-71.191 92.516z"/></g></svg>